
<svg xmlns="http://www.w3.org/2000/svg" viewBox="0 0 200 200">
  <!-- Blue person -->
  <path d="M100,70 C88,60 76,65 70,80 C64,95 70,110 85,115 C90,117 95,115 100,110" fill="#2B7CBA"/>
  
  <!-- Purple person -->
  <path d="M100,70 C112,60 118,70 120,85 C122,100 115,110 105,112 C95,114 90,105 85,100" fill="#9B4F96"/>
  
  <!-- Orange person -->
  <path d="M120,85 C130,75 140,80 145,90 C150,100 145,115 135,118 C125,121 115,115 112,105" fill="#F7941D"/>
  
  <!-- Green person -->
  <path d="M70,80 C60,85 55,95 60,105 C65,115 75,120 85,115 C90,112 92,105 90,100" fill="#8DC63F"/>
</svg>
